<?xml version="1.0" encoding="utf-8"?><!-- Uploaded to: SVG Repo, www.svgrepo.com, Generator: SVG Repo Mixer Tools -->
<svg version="1.1" id="Uploaded to svgrepo.com" xmlns="http://www.w3.org/2000/svg" xmlns:xlink="http://www.w3.org/1999/xlink" 
	 width="800px" height="800px" viewBox="0 0 32 32" xml:space="preserve">
<style type="text/css">
	.linesandangles_een{fill:#111918;}
</style>
<path class="linesandangles_een" d="M27.522,26.936C28.44,25.882,29,24.508,29,23c0-3.314-2.686-6-6-6
	c-0.485,0-0.951,0.074-1.403,0.183l-6.779-6.779C14.926,9.951,15,9.485,15,9c0-3.314-2.686-6-6-6C7.492,3,6.118,3.56,5.064,4.478
	L8.586,8L8,8.586L4.478,5.064C3.56,6.118,3,7.492,3,9c0,3.314,2.686,6,6,6c0.485,0,0.951-0.074,1.403-0.183l6.779,6.779
	C17.074,22.049,17,22.515,17,23c0,3.314,2.686,6,6,6c1.508,0,2.882-0.56,3.936-1.478L23.414,24L24,23.414L27.522,26.936z
	 M23.537,26.951C23.361,26.976,23.184,27,23,27c-2.206,0-4-1.794-4-4c0-0.694,0.194-1.338,0.506-1.908l-8.599-8.599
	C10.338,12.806,9.694,13,9,13c-2.206,0-4-1.794-4-4c0-0.184,0.024-0.361,0.049-0.537L8,11.414L11.414,8L8.463,5.049
	C8.639,5.024,8.816,5,9,5c2.206,0,4,1.794,4,4c0,0.694-0.194,1.338-0.506,1.908l8.599,8.599C21.662,19.194,22.306,19,23,19
	c2.206,0,4,1.794,4,4c0,0.184-0.024,0.361-0.049,0.537L24,20.586L20.586,24L23.537,26.951z"/>
</svg>