<?xml version="1.0" encoding="UTF-8"?>
<!DOCTYPE svg PUBLIC "-//W3C//DTD SVG 1.1//EN" "http://www.w3.org/Graphics/SVG/1.1/DTD/svg11.dtd">
<svg xmlns="http://www.w3.org/2000/svg" version="1.1" width="512px" height="512px" style="shape-rendering:geometricPrecision; text-rendering:geometricPrecision; image-rendering:optimizeQuality; fill-rule:evenodd; clip-rule:evenodd" xmlns:xlink="http://www.w3.org/1999/xlink">
<g><path style="opacity:0.963" fill="#000000" d="M 462.5,30.5 C 478.324,33.4781 483.158,42.4781 477,57.5C 410.986,123.347 345.153,189.347 279.5,255.5C 345.153,321.653 410.986,387.653 477,453.5C 482.56,464.367 480.06,472.867 469.5,479C 463.903,480.091 458.57,479.424 453.5,477C 387.653,410.986 321.653,345.153 255.5,279.5C 189.347,345.153 123.347,410.986 57.5,477C 39.1328,483.294 30.6328,476.794 32,457.5C 32.6667,456.167 33.3333,454.833 34,453.5C 100.014,387.653 165.847,321.653 231.5,255.5C 166.18,189.68 100.68,124.014 35,58.5C 28.8341,44.4974 33.1675,35.4974 48,31.5C 51.7161,32.0423 55.2161,33.2089 58.5,35C 124.014,100.68 189.68,166.18 255.5,231.5C 321.653,165.847 387.653,100.014 453.5,34C 456.459,32.3957 459.459,31.2291 462.5,30.5 Z"/></g>
</svg>
