<?xml version="1.0" encoding="UTF-8"?>
<!DOCTYPE svg PUBLIC "-//W3C//DTD SVG 1.1//EN" "http://www.w3.org/Graphics/SVG/1.1/DTD/svg11.dtd">
<svg xmlns="http://www.w3.org/2000/svg" version="1.1" width="512px" height="512px" style="shape-rendering:geometricPrecision; text-rendering:geometricPrecision; image-rendering:optimizeQuality; fill-rule:evenodd; clip-rule:evenodd" xmlns:xlink="http://www.w3.org/1999/xlink">
<g><path style="opacity:0.957" fill="#000000" d="M 86.5,61.5 C 219.581,61.0035 352.581,61.5035 485.5,63C 486.126,63.7504 486.626,64.5838 487,65.5C 487.667,170.167 487.667,274.833 487,379.5C 485.833,380.667 484.667,381.833 483.5,383C 465.503,383.5 447.503,383.667 429.5,383.5C 429.667,403.169 429.5,422.836 429,442.5C 428.594,445.494 427.094,447.661 424.5,449C 291.42,449.996 158.42,449.663 25.5,448C 24.8742,447.25 24.3742,446.416 24,445.5C 23.3333,340.833 23.3333,236.167 24,131.5C 25.1667,130.333 26.3333,129.167 27.5,128C 45.4969,127.5 63.4969,127.333 81.5,127.5C 81.3334,107.831 81.5,88.1638 82,68.5C 82.5303,65.415 84.0303,63.0817 86.5,61.5 Z M 98.5,78.5 C 222.833,78.5 347.167,78.5 471.5,78.5C 471.5,174.5 471.5,270.5 471.5,366.5C 457.5,366.5 443.5,366.5 429.5,366.5C 429.667,289.166 429.5,211.833 429,134.5C 428.608,131.545 427.108,129.378 424.5,128C 315.834,127.5 207.167,127.333 98.5,127.5C 98.5,111.167 98.5,94.8333 98.5,78.5 Z M 39.5,144.5 C 163.833,144.5 288.167,144.5 412.5,144.5C 412.5,240.5 412.5,336.5 412.5,432.5C 288.167,432.5 163.833,432.5 39.5,432.5C 39.5,336.5 39.5,240.5 39.5,144.5 Z"/></g>
</svg>
