<?xml version="1.0" encoding="iso-8859-1"?>
<!-- Uploaded to: SVG Repo, www.svgrepo.com, Generator: SVG Repo Mixer Tools -->
<!DOCTYPE svg PUBLIC "-//W3C//DTD SVG 1.1//EN" "http://www.w3.org/Graphics/SVG/1.1/DTD/svg11.dtd">
<svg height="800px" width="800px" version="1.1" id="Capa_1" xmlns="http://www.w3.org/2000/svg" xmlns:xlink="http://www.w3.org/1999/xlink" 
	 viewBox="0 0 319.541 319.541" xml:space="preserve">
<g>
	<path style="fill:#000002;" d="M225.151,200.735h-14.089V71.965c9.57-3.158,16.5-12.179,16.5-22.793c0-13.233-10.767-24-24-24
		c-13.233,0-24,10.767-24,24c0,10.614,6.93,19.636,16.5,22.793v128.77h-45.254c-2.491-21.03-23.403-37.501-48.75-37.501
		s-46.259,16.471-48.75,37.501h-0.37c-12.407,0-22.5,10.093-22.5,22.5v73.807c0,12.407,10.093,22.5,22.5,22.5h172.213
		c12.407,0,22.5-10.093,22.5-22.5v-73.807C247.651,210.828,237.557,200.735,225.151,200.735z M203.562,40.171c4.962,0,9,4.038,9,9
		s-4.038,9-9,9c-4.962,0-9-4.038-9-9S198.599,40.171,203.562,40.171z M102.058,178.234c16.921,0,30.991,9.766,33.572,22.501H68.486
		C71.067,187.999,85.136,178.234,102.058,178.234z M232.651,297.041c0,4.135-3.364,7.5-7.5,7.5H52.938c-4.136,0-7.5-3.365-7.5-7.5
		v-73.807c0-4.135,3.364-7.5,7.5-7.5h172.213c4.136,0,7.5,3.365,7.5,7.5V297.041z"/>
	<path style="fill:#000002;" d="M83.877,272.613H72.382c-4.142,0-7.5,3.358-7.5,7.5s3.358,7.5,7.5,7.5h11.494
		c4.142,0,7.5-3.358,7.5-7.5S88.019,272.613,83.877,272.613z"/>
	<path style="fill:#000002;" d="M119.662,272.613h-11.494c-4.142,0-7.5,3.358-7.5,7.5s3.358,7.5,7.5,7.5h11.494
		c4.142,0,7.5-3.358,7.5-7.5S123.804,272.613,119.662,272.613z"/>
	<path style="fill:#000002;" d="M155.445,272.613h-11.492c-4.142,0-7.5,3.358-7.5,7.5s3.358,7.5,7.5,7.5h11.492
		c4.142,0,7.5-3.358,7.5-7.5S159.588,272.613,155.445,272.613z"/>
	<path style="fill:#000002;" d="M211.52,272.613h-11.488c-4.142,0-7.5,3.358-7.5,7.5s3.358,7.5,7.5,7.5h11.488
		c4.142,0,7.5-3.358,7.5-7.5S215.662,272.613,211.52,272.613z"/>
	<path style="fill:#000002;" d="M274.012,2.838c-2.575-3.244-7.292-3.788-10.537-1.213c-3.245,2.575-3.788,7.292-1.213,10.537
		c7.194,9.065,11.842,23.577,11.842,36.97c0,13.517-4.733,28.137-12.06,37.247c-2.596,3.228-2.083,7.949,1.145,10.545
		c1.386,1.114,3.046,1.656,4.695,1.656c2.193,0,4.368-0.958,5.85-2.8c9.48-11.79,15.37-29.664,15.37-46.648
		C289.104,32.308,283.321,14.57,274.012,2.838z"/>
	<path style="fill:#000002;" d="M250.622,17.803c-2.575-3.245-7.292-3.788-10.537-1.214c-3.245,2.575-3.788,7.292-1.214,10.537
		c3.79,4.776,6.647,14.263,6.647,22.067c0,7.871-2.91,17.424-6.77,22.222c-2.596,3.228-2.085,7.949,1.143,10.545
		c1.386,1.115,3.046,1.657,4.696,1.657c2.193,0,4.367-0.957,5.849-2.799c6.964-8.657,10.082-22.121,10.082-31.624
		C260.518,39.777,257.458,26.419,250.622,17.803z"/>
	<path style="fill:#000002;" d="M138.747,98.58c1.649,0,3.31-0.541,4.695-1.656c3.228-2.596,3.74-7.317,1.145-10.545
		c-7.326-9.11-12.059-23.73-12.059-37.247c0-13.393,4.648-27.904,11.842-36.97c2.575-3.245,2.032-7.962-1.213-10.537
		c-3.245-2.575-7.962-2.032-10.537,1.213c-9.309,11.731-15.092,29.47-15.092,46.294c0,16.983,5.89,34.858,15.37,46.648
		C134.379,97.622,136.553,98.58,138.747,98.58z"/>
	<path style="fill:#000002;" d="M162.04,83.616c1.65,0,3.311-0.542,4.696-1.657c3.228-2.596,3.739-7.317,1.143-10.545
		c-3.859-4.797-6.77-14.351-6.77-22.222c0-7.804,2.857-17.291,6.647-22.067c2.574-3.245,2.031-7.962-1.214-10.537
		c-3.245-2.574-7.962-2.031-10.537,1.214c-6.836,8.616-9.896,21.974-9.896,31.39c0,9.503,3.118,22.967,10.082,31.624
		C157.673,82.659,159.847,83.616,162.04,83.616z"/>
</g>
</svg>